REM MD5 f4dc368c7797f2bd9f0b67e0f6447aa1
FILE "MLB 99 (USA).bin" BINARY
  TRACK 01 MODE2/2352
    INDEX 01 00:00:00
  TRACK 02 AUDIO
    INDEX 00 61:18:41
    INDEX 01 61:20:41
  TRACK 03 AUDIO
    INDEX 00 64:35:45
    INDEX 01 64:37:45
REM LEADOUT 67:35:11
